<?xml version="1.0" encoding="UTF-8" standalone="no"?>
<!DOCTYPE svg PUBLIC "-//W3C//DTD SVG 1.1//EN"
 "http://www.w3.org/Graphics/SVG/1.1/DTD/svg11.dtd">
<!-- Generated by graphviz version 14.1.2 (20260124.0452)
 -->
<!-- Title: rack Pages: 1 -->
<svg width="353pt" height="1075pt"
 viewBox="0.00 0.00 353.00 1075.00" xmlns="http://www.w3.org/2000/svg" xmlns:xlink="http://www.w3.org/1999/xlink">
<g id="graph0" class="graph" transform="scale(1 1) rotate(0) translate(4 1071.25)">
<title>rack</title>
<polygon fill="white" stroke="none" points="-4,4 -4,-1071.25 348.5,-1071.25 348.5,4 -4,4"/>
<!-- rack -->
<g id="node1" class="node">
<title>rack</title>
<polygon fill="#dddddd" stroke="none" points="2,-1032 2,-1065.25 342.5,-1065.25 342.5,-1032 2,-1032"/>
<polygon fill="none" stroke="black" points="2,-1032 2,-1065.25 342.5,-1065.25 342.5,-1032 2,-1032"/>
<text xml:space="preserve" text-anchor="start" x="84.5" y="-1042.25" font-family="Arial" font-weight="bold" font-size="20.00">Rack 1 Front (40U)</text>
<polygon fill="none" stroke="black" points="2,-1006.25 2,-1032 82.5,-1032 82.5,-1006.25 2,-1006.25"/>
<text xml:space="preserve" text-anchor="start" x="34.75" y="-1013.7" font-family="Arial" font-size="14.00">40</text>
<polygon fill="#ced3db" stroke="none" points="82.5,-903.25 82.5,-1032 342.5,-1032 342.5,-903.25 82.5,-903.25"/>
<polygon fill="none" stroke="black" points="82.5,-903.25 82.5,-1032 342.5,-1032 342.5,-903.25 82.5,-903.25"/>
<text xml:space="preserve" text-anchor="start" x="149.12" y="-968.08" font-family="Arial" font-weight="bold" font-size="19.00">Audio / terrain</text>
<text xml:space="preserve" text-anchor="start" x="202.38" y="-951.93" font-family="Arial" font-size="16.00">5U</text>
<polygon fill="none" stroke="black" points="2,-980.5 2,-1006.25 82.5,-1006.25 82.5,-980.5 2,-980.5"/>
<text xml:space="preserve" text-anchor="start" x="34.75" y="-987.95" font-family="Arial" font-size="14.00">39</text>
<polygon fill="none" stroke="black" points="2,-954.75 2,-980.5 82.5,-980.5 82.5,-954.75 2,-954.75"/>
<text xml:space="preserve" text-anchor="start" x="34.75" y="-962.2" font-family="Arial" font-size="14.00">38</text>
<polygon fill="none" stroke="black" points="2,-929 2,-954.75 82.5,-954.75 82.5,-929 2,-929"/>
<text xml:space="preserve" text-anchor="start" x="34.75" y="-936.45" font-family="Arial" font-size="14.00">37</text>
<polygon fill="none" stroke="black" points="2,-903.25 2,-929 82.5,-929 82.5,-903.25 2,-903.25"/>
<text xml:space="preserve" text-anchor="start" x="34.75" y="-910.7" font-family="Arial" font-size="14.00">36</text>
<polygon fill="none" stroke="black" points="2,-877.5 2,-903.25 82.5,-903.25 82.5,-877.5 2,-877.5"/>
<text xml:space="preserve" text-anchor="start" x="34.75" y="-884.95" font-family="Arial" font-size="14.00">35</text>
<polygon fill="#ced3db" stroke="none" points="82.5,-774.5 82.5,-903.25 342.5,-903.25 342.5,-774.5 82.5,-774.5"/>
<polygon fill="none" stroke="black" points="82.5,-774.5 82.5,-903.25 342.5,-903.25 342.5,-774.5 82.5,-774.5"/>
<text xml:space="preserve" text-anchor="start" x="152.5" y="-839.33" font-family="Arial" font-weight="bold" font-size="19.00">Telemetry PC</text>
<text xml:space="preserve" text-anchor="start" x="202.38" y="-823.18" font-family="Arial" font-size="16.00">5U</text>
<polygon fill="none" stroke="black" points="2,-851.75 2,-877.5 82.5,-877.5 82.5,-851.75 2,-851.75"/>
<text xml:space="preserve" text-anchor="start" x="34.75" y="-859.2" font-family="Arial" font-size="14.00">34</text>
<polygon fill="none" stroke="black" points="2,-826 2,-851.75 82.5,-851.75 82.5,-826 2,-826"/>
<text xml:space="preserve" text-anchor="start" x="34.75" y="-833.45" font-family="Arial" font-size="14.00">33</text>
<polygon fill="none" stroke="black" points="2,-800.25 2,-826 82.5,-826 82.5,-800.25 2,-800.25"/>
<text xml:space="preserve" text-anchor="start" x="34.75" y="-807.7" font-family="Arial" font-size="14.00">32</text>
<polygon fill="none" stroke="black" points="2,-774.5 2,-800.25 82.5,-800.25 82.5,-774.5 2,-774.5"/>
<text xml:space="preserve" text-anchor="start" x="34.75" y="-781.95" font-family="Arial" font-size="14.00">31</text>
<polygon fill="none" stroke="black" points="2,-748.75 2,-774.5 82.5,-774.5 82.5,-748.75 2,-748.75"/>
<text xml:space="preserve" text-anchor="start" x="34.75" y="-756.2" font-family="Arial" font-size="14.00">30</text>
<polygon fill="#ffffff" stroke="none" points="82.5,-620 82.5,-774.5 342.5,-774.5 342.5,-620 82.5,-620"/>
<polygon fill="none" stroke="black" points="82.5,-620 82.5,-774.5 342.5,-774.5 342.5,-620 82.5,-620"/>
<text xml:space="preserve" text-anchor="start" x="142.38" y="-697.25" font-family="Arial" font-weight="bold" font-size="20.00">Fibre / network</text>
<text xml:space="preserve" text-anchor="start" x="202.38" y="-681.05" font-family="Arial" font-size="16.00">6U</text>
<polygon fill="none" stroke="black" points="2,-723 2,-748.75 82.5,-748.75 82.5,-723 2,-723"/>
<text xml:space="preserve" text-anchor="start" x="34.75" y="-730.45" font-family="Arial" font-size="14.00">29</text>
<polygon fill="none" stroke="black" points="2,-697.25 2,-723 82.5,-723 82.5,-697.25 2,-697.25"/>
<text xml:space="preserve" text-anchor="start" x="34.75" y="-704.7" font-family="Arial" font-size="14.00">28</text>
<polygon fill="none" stroke="black" points="2,-671.5 2,-697.25 82.5,-697.25 82.5,-671.5 2,-671.5"/>
<text xml:space="preserve" text-anchor="start" x="34.75" y="-678.95" font-family="Arial" font-size="14.00">27</text>
<polygon fill="none" stroke="black" points="2,-645.75 2,-671.5 82.5,-671.5 82.5,-645.75 2,-645.75"/>
<text xml:space="preserve" text-anchor="start" x="34.75" y="-653.2" font-family="Arial" font-size="14.00">26</text>
<polygon fill="none" stroke="black" points="2,-620 2,-645.75 82.5,-645.75 82.5,-620 2,-620"/>
<text xml:space="preserve" text-anchor="start" x="34.75" y="-627.45" font-family="Arial" font-size="14.00">25</text>
<polygon fill="none" stroke="black" points="2,-594.25 2,-620 82.5,-620 82.5,-594.25 2,-594.25"/>
<text xml:space="preserve" text-anchor="start" x="34.75" y="-601.7" font-family="Arial" font-size="14.00">24</text>
<polygon fill="#ced3db" stroke="none" points="82.5,-491.25 82.5,-620 342.5,-620 342.5,-491.25 82.5,-491.25"/>
<polygon fill="none" stroke="black" points="82.5,-491.25 82.5,-620 342.5,-620 342.5,-491.25 82.5,-491.25"/>
<text xml:space="preserve" text-anchor="start" x="161.12" y="-556.08" font-family="Arial" font-weight="bold" font-size="19.00">Physics PC</text>
<text xml:space="preserve" text-anchor="start" x="202.38" y="-539.93" font-family="Arial" font-size="16.00">5U</text>
<polygon fill="none" stroke="black" points="2,-568.5 2,-594.25 82.5,-594.25 82.5,-568.5 2,-568.5"/>
<text xml:space="preserve" text-anchor="start" x="34.75" y="-575.95" font-family="Arial" font-size="14.00">23</text>
<polygon fill="none" stroke="black" points="2,-542.75 2,-568.5 82.5,-568.5 82.5,-542.75 2,-542.75"/>
<text xml:space="preserve" text-anchor="start" x="34.75" y="-550.2" font-family="Arial" font-size="14.00">22</text>
<polygon fill="none" stroke="black" points="2,-517 2,-542.75 82.5,-542.75 82.5,-517 2,-517"/>
<text xml:space="preserve" text-anchor="start" x="34.75" y="-524.45" font-family="Arial" font-size="14.00">21</text>
<polygon fill="none" stroke="black" points="2,-491.25 2,-517 82.5,-517 82.5,-491.25 2,-491.25"/>
<text xml:space="preserve" text-anchor="start" x="34.75" y="-498.7" font-family="Arial" font-size="14.00">20</text>
<polygon fill="none" stroke="black" points="2,-465.5 2,-491.25 82.5,-491.25 82.5,-465.5 2,-465.5"/>
<text xml:space="preserve" text-anchor="start" x="34.75" y="-472.95" font-family="Arial" font-size="14.00">19</text>
<polygon fill="#519ab5" stroke="none" points="82.5,-388.25 82.5,-491.25 342.5,-491.25 342.5,-388.25 82.5,-388.25"/>
<polygon fill="none" stroke="black" points="82.5,-388.25 82.5,-491.25 342.5,-491.25 342.5,-388.25 82.5,-388.25"/>
<text xml:space="preserve" text-anchor="start" x="166.38" y="-440.65" font-family="Arial" font-weight="bold" font-size="18.00">Speedgoat</text>
<text xml:space="preserve" text-anchor="start" x="202.38" y="-424.55" font-family="Arial" font-size="16.00">4U</text>
<polygon fill="none" stroke="black" points="2,-439.75 2,-465.5 82.5,-465.5 82.5,-439.75 2,-439.75"/>
<text xml:space="preserve" text-anchor="start" x="34.75" y="-447.2" font-family="Arial" font-size="14.00">18</text>
<polygon fill="none" stroke="black" points="2,-414 2,-439.75 82.5,-439.75 82.5,-414 2,-414"/>
<text xml:space="preserve" text-anchor="start" x="34.75" y="-421.45" font-family="Arial" font-size="14.00">17</text>
<polygon fill="none" stroke="black" points="2,-388.25 2,-414 82.5,-414 82.5,-388.25 2,-388.25"/>
<text xml:space="preserve" text-anchor="start" x="34.75" y="-395.7" font-family="Arial" font-size="14.00">16</text>
<polygon fill="none" stroke="black" points="2,-362.5 2,-388.25 82.5,-388.25 82.5,-362.5 2,-362.5"/>
<text xml:space="preserve" text-anchor="start" x="34.75" y="-369.95" font-family="Arial" font-size="14.00">15</text>
<polygon fill="#ced3db" stroke="none" points="82.5,-259.5 82.5,-388.25 342.5,-388.25 342.5,-259.5 82.5,-259.5"/>
<polygon fill="none" stroke="black" points="82.5,-259.5 82.5,-388.25 342.5,-388.25 342.5,-259.5 82.5,-259.5"/>
<text xml:space="preserve" text-anchor="start" x="157" y="-324.32" font-family="Arial" font-weight="bold" font-size="19.00">Operator PC</text>
<text xml:space="preserve" text-anchor="start" x="202.38" y="-308.18" font-family="Arial" font-size="16.00">5U</text>
<polygon fill="none" stroke="black" points="2,-336.75 2,-362.5 82.5,-362.5 82.5,-336.75 2,-336.75"/>
<text xml:space="preserve" text-anchor="start" x="34.75" y="-344.2" font-family="Arial" font-size="14.00">14</text>
<polygon fill="none" stroke="black" points="2,-311 2,-336.75 82.5,-336.75 82.5,-311 2,-311"/>
<text xml:space="preserve" text-anchor="start" x="34.75" y="-318.45" font-family="Arial" font-size="14.00">13</text>
<polygon fill="none" stroke="black" points="2,-285.25 2,-311 82.5,-311 82.5,-285.25 2,-285.25"/>
<text xml:space="preserve" text-anchor="start" x="34.75" y="-292.7" font-family="Arial" font-size="14.00">12</text>
<polygon fill="none" stroke="black" points="2,-259.5 2,-285.25 82.5,-285.25 82.5,-259.5 2,-259.5"/>
<text xml:space="preserve" text-anchor="start" x="35.12" y="-266.95" font-family="Arial" font-size="14.00">11</text>
<polygon fill="none" stroke="black" points="2,-233.75 2,-259.5 82.5,-259.5 82.5,-233.75 2,-233.75"/>
<text xml:space="preserve" text-anchor="start" x="34.75" y="-241.2" font-family="Arial" font-size="14.00">10</text>
<polygon fill="#ced3db" stroke="none" points="82.5,-130.75 82.5,-259.5 342.5,-259.5 342.5,-130.75 82.5,-130.75"/>
<polygon fill="none" stroke="black" points="82.5,-130.75 82.5,-259.5 342.5,-259.5 342.5,-130.75 82.5,-130.75"/>
<text xml:space="preserve" text-anchor="start" x="161.12" y="-195.57" font-family="Arial" font-weight="bold" font-size="19.00">Dedi server</text>
<text xml:space="preserve" text-anchor="start" x="202.38" y="-179.42" font-family="Arial" font-size="16.00">5U</text>
<polygon fill="none" stroke="black" points="2,-208 2,-233.75 82.5,-233.75 82.5,-208 2,-208"/>
<text xml:space="preserve" text-anchor="start" x="38.5" y="-215.45" font-family="Arial" font-size="14.00">9</text>
<polygon fill="none" stroke="black" points="2,-182.25 2,-208 82.5,-208 82.5,-182.25 2,-182.25"/>
<text xml:space="preserve" text-anchor="start" x="38.5" y="-189.7" font-family="Arial" font-size="14.00">8</text>
<polygon fill="none" stroke="black" points="2,-156.5 2,-182.25 82.5,-182.25 82.5,-156.5 2,-156.5"/>
<text xml:space="preserve" text-anchor="start" x="38.5" y="-163.95" font-family="Arial" font-size="14.00">7</text>
<polygon fill="none" stroke="black" points="2,-130.75 2,-156.5 82.5,-156.5 82.5,-130.75 2,-130.75"/>
<text xml:space="preserve" text-anchor="start" x="38.5" y="-138.2" font-family="Arial" font-size="14.00">6</text>
<polygon fill="none" stroke="black" points="2,-105 2,-130.75 82.5,-130.75 82.5,-105 2,-105"/>
<text xml:space="preserve" text-anchor="start" x="38.5" y="-112.45" font-family="Arial" font-size="14.00">5</text>
<polygon fill="#ced3db" stroke="none" points="82.5,-2 82.5,-130.75 342.5,-130.75 342.5,-2 82.5,-2"/>
<polygon fill="none" stroke="black" points="82.5,-2 82.5,-130.75 342.5,-130.75 342.5,-2 82.5,-2"/>
<text xml:space="preserve" text-anchor="start" x="129.62" y="-66.83" font-family="Arial" font-weight="bold" font-size="19.00">Beckhoff / com PC</text>
<text xml:space="preserve" text-anchor="start" x="202.38" y="-50.68" font-family="Arial" font-size="16.00">5U</text>
<polygon fill="none" stroke="black" points="2,-79.25 2,-105 82.5,-105 82.5,-79.25 2,-79.25"/>
<text xml:space="preserve" text-anchor="start" x="38.5" y="-86.7" font-family="Arial" font-size="14.00">4</text>
<polygon fill="none" stroke="black" points="2,-53.5 2,-79.25 82.5,-79.25 82.5,-53.5 2,-53.5"/>
<text xml:space="preserve" text-anchor="start" x="38.5" y="-60.95" font-family="Arial" font-size="14.00">3</text>
<polygon fill="none" stroke="black" points="2,-27.75 2,-53.5 82.5,-53.5 82.5,-27.75 2,-27.75"/>
<text xml:space="preserve" text-anchor="start" x="38.5" y="-35.2" font-family="Arial" font-size="14.00">2</text>
<polygon fill="none" stroke="black" points="2,-2 2,-27.75 82.5,-27.75 82.5,-2 2,-2"/>
<text xml:space="preserve" text-anchor="start" x="38.5" y="-9.45" font-family="Arial" font-size="14.00">1</text>
<polygon fill="none" stroke="black" stroke-width="2" points="1,-1 1,-1066.25 343.5,-1066.25 343.5,-1 1,-1"/>
</g>
</g>
</svg>
