<?xml version="1.0" encoding="UTF-8" standalone="no"?>
<!DOCTYPE svg PUBLIC "-//W3C//DTD SVG 1.1//EN"
 "http://www.w3.org/Graphics/SVG/1.1/DTD/svg11.dtd">
<!-- Generated by graphviz version 14.1.2 (20260124.0452)
 -->
<!-- Title: Power Distribution Pages: 1 -->
<svg width="2162pt" height="188pt"
 viewBox="0.00 0.00 2162.00 188.00" xmlns="http://www.w3.org/2000/svg" xmlns:xlink="http://www.w3.org/1999/xlink">
<g id="graph0" class="graph" transform="scale(1 1) rotate(0) translate(4 184.35)">
<title>Power Distribution</title>
<polygon fill="white" stroke="none" points="-4,4 -4,-184.35 2157.65,-184.35 2157.65,4 -4,4"/>
<text xml:space="preserve" text-anchor="middle" x="1076.83" y="-161.15" font-family="Sinkin Sans 400 Regular" font-size="16.00">Power Distribution</text>
<!-- R1&#45;PDU&#45;A -->
<g id="node1" class="node">
<title>R1&#45;PDU&#45;A</title>
<polygon fill="#aaaaaa" stroke="black" stroke-width="3" points="383.17,-155.1 292.12,-155.1 292.12,-113.55 383.17,-113.55 383.17,-155.1"/>
<text xml:space="preserve" text-anchor="middle" x="337.65" y="-129.3" font-family="Sinkin Sans 400 Regular" font-size="12.00">R1&#45;PDU&#45;A</text>
</g>
<!-- Audio___terrain -->
<g id="node2" class="node">
<title>Audio___terrain</title>
<path fill="#ced3db" stroke="black" d="M111.3,-41.55C111.3,-41.55 12,-41.55 12,-41.55 6,-41.55 0,-35.55 0,-29.55 0,-29.55 0,-12 0,-12 0,-6 6,0 12,0 12,0 111.3,0 111.3,0 117.3,0 123.3,-6 123.3,-12 123.3,-12 123.3,-29.55 123.3,-29.55 123.3,-35.55 117.3,-41.55 111.3,-41.55"/>
<text xml:space="preserve" text-anchor="middle" x="61.65" y="-15.75" font-family="Sinkin Sans 400 Regular" font-size="12.00">Audio / terrain</text>
</g>
<!-- R1&#45;PDU&#45;A&#45;&#45;Audio___terrain -->
<g id="edge1" class="edge">
<title>R1&#45;PDU&#45;A&#45;&#45;Audio___terrain</title>
<path fill="none" stroke="#151617" stroke-width="4" d="M290.83,-114.4C241,-94.26 162.46,-62.52 111.5,-41.92"/>
</g>
<!-- Physics_PC -->
<g id="node6" class="node">
<title>Physics_PC</title>
<path fill="#ced3db" stroke="black" d="M286.17,-41.55C286.17,-41.55 207.12,-41.55 207.12,-41.55 201.12,-41.55 195.12,-35.55 195.12,-29.55 195.12,-29.55 195.12,-12 195.12,-12 195.12,-6 201.12,0 207.12,0 207.12,0 286.17,0 286.17,0 292.17,0 298.17,-6 298.17,-12 298.17,-12 298.17,-29.55 298.17,-29.55 298.17,-35.55 292.17,-41.55 286.17,-41.55"/>
<text xml:space="preserve" text-anchor="middle" x="246.65" y="-15.75" font-family="Sinkin Sans 400 Regular" font-size="12.00">Physics PC</text>
</g>
<!-- R1&#45;PDU&#45;A&#45;&#45;Physics_PC -->
<g id="edge4" class="edge">
<title>R1&#45;PDU&#45;A&#45;&#45;Physics_PC</title>
<path fill="none" stroke="#151617" stroke-width="4" d="M320.32,-112.08C303.82,-91.85 279.17,-61.63 263,-41.81"/>
</g>
<!-- Telemetry_PC -->
<g id="node8" class="node">
<title>Telemetry_PC</title>
<path fill="#ced3db" stroke="black" d="M476.67,-41.55C476.67,-41.55 382.62,-41.55 382.62,-41.55 376.62,-41.55 370.62,-35.55 370.62,-29.55 370.62,-29.55 370.62,-12 370.62,-12 370.62,-6 376.62,0 382.62,0 382.62,0 476.67,0 476.67,0 482.67,0 488.67,-6 488.67,-12 488.67,-12 488.67,-29.55 488.67,-29.55 488.67,-35.55 482.67,-41.55 476.67,-41.55"/>
<text xml:space="preserve" text-anchor="middle" x="429.65" y="-15.75" font-family="Sinkin Sans 400 Regular" font-size="12.00">Telemetry PC</text>
</g>
<!-- R1&#45;PDU&#45;A&#45;&#45;Telemetry_PC -->
<g id="edge2" class="edge">
<title>R1&#45;PDU&#45;A&#45;&#45;Telemetry_PC</title>
<path fill="none" stroke="#151617" stroke-width="4" d="M355.17,-112.08C371.85,-91.85 396.78,-61.63 413.12,-41.81"/>
</g>
<!-- Fibre___network -->
<g id="node14" class="node">
<title>Fibre___network</title>
<path fill="#e8f4f8" stroke="black" d="M676.55,-41.55C676.55,-41.55 572.75,-41.55 572.75,-41.55 566.75,-41.55 560.75,-35.55 560.75,-29.55 560.75,-29.55 560.75,-12 560.75,-12 560.75,-6 566.75,0 572.75,0 572.75,0 676.55,0 676.55,0 682.55,0 688.55,-6 688.55,-12 688.55,-12 688.55,-29.55 688.55,-29.55 688.55,-35.55 682.55,-41.55 676.55,-41.55"/>
<text xml:space="preserve" text-anchor="middle" x="624.65" y="-15.75" font-family="Sinkin Sans 400 Regular" font-size="12.00">Fibre / network</text>
</g>
<!-- R1&#45;PDU&#45;A&#45;&#45;Fibre___network -->
<g id="edge3" class="edge">
<title>R1&#45;PDU&#45;A&#45;&#45;Fibre___network</title>
<path fill="none" stroke="#151617" stroke-width="4" d="M384.4,-115.15C436.02,-95.09 518.91,-62.87 572.57,-42.02"/>
</g>
<!-- Beckhoff___com_PC -->
<g id="node3" class="node">
<title>Beckhoff___com_PC</title>
<path fill="#ced3db" stroke="black" d="M1596.8,-41.55C1596.8,-41.55 1470.5,-41.55 1470.5,-41.55 1464.5,-41.55 1458.5,-35.55 1458.5,-29.55 1458.5,-29.55 1458.5,-12 1458.5,-12 1458.5,-6 1464.5,0 1470.5,0 1470.5,0 1596.8,0 1596.8,0 1602.8,0 1608.8,-6 1608.8,-12 1608.8,-12 1608.8,-29.55 1608.8,-29.55 1608.8,-35.55 1602.8,-41.55 1596.8,-41.55"/>
<text xml:space="preserve" text-anchor="middle" x="1533.65" y="-15.75" font-family="Sinkin Sans 400 Regular" font-size="12.00">Beckhoff / com PC</text>
</g>
<!-- Dedi_server -->
<g id="node4" class="node">
<title>Dedi_server</title>
<path fill="#ced3db" stroke="black" d="M1374.93,-41.55C1374.93,-41.55 1294.38,-41.55 1294.38,-41.55 1288.38,-41.55 1282.38,-35.55 1282.38,-29.55 1282.38,-29.55 1282.38,-12 1282.38,-12 1282.38,-6 1288.38,0 1294.38,0 1294.38,0 1374.93,0 1374.93,0 1380.93,0 1386.93,-6 1386.93,-12 1386.93,-12 1386.93,-29.55 1386.93,-29.55 1386.93,-35.55 1380.93,-41.55 1374.93,-41.55"/>
<text xml:space="preserve" text-anchor="middle" x="1334.65" y="-15.75" font-family="Sinkin Sans 400 Regular" font-size="12.00">Dedi server</text>
</g>
<!-- Operator_PC -->
<g id="node5" class="node">
<title>Operator_PC</title>
<path fill="#ced3db" stroke="black" d="M1198.68,-41.55C1198.68,-41.55 1110.62,-41.55 1110.62,-41.55 1104.62,-41.55 1098.62,-35.55 1098.62,-29.55 1098.62,-29.55 1098.62,-12 1098.62,-12 1098.62,-6 1104.62,0 1110.62,0 1110.62,0 1198.68,0 1198.68,0 1204.68,0 1210.68,-6 1210.68,-12 1210.68,-12 1210.68,-29.55 1210.68,-29.55 1210.68,-35.55 1204.68,-41.55 1198.68,-41.55"/>
<text xml:space="preserve" text-anchor="middle" x="1154.65" y="-15.75" font-family="Sinkin Sans 400 Regular" font-size="12.00">Operator PC</text>
</g>
<!-- Speedgoat -->
<g id="node7" class="node">
<title>Speedgoat</title>
<path fill="#519ab5" stroke="black" d="M1014.55,-41.55C1014.55,-41.55 934.75,-41.55 934.75,-41.55 928.75,-41.55 922.75,-35.55 922.75,-29.55 922.75,-29.55 922.75,-12 922.75,-12 922.75,-6 928.75,0 934.75,0 934.75,0 1014.55,0 1014.55,0 1020.55,0 1026.55,-6 1026.55,-12 1026.55,-12 1026.55,-29.55 1026.55,-29.55 1026.55,-35.55 1020.55,-41.55 1014.55,-41.55"/>
<text xml:space="preserve" text-anchor="middle" x="974.65" y="-15.75" font-family="Sinkin Sans 400 Regular" font-size="12.00">Speedgoat</text>
</g>
<!-- R1&#45;PDU&#45;B -->
<g id="node9" class="node">
<title>R1&#45;PDU&#45;B</title>
<path fill="#aaaaaa" stroke="black" d="M839.17,-41.55C839.17,-41.55 772.12,-41.55 772.12,-41.55 766.12,-41.55 760.12,-35.55 760.12,-29.55 760.12,-29.55 760.12,-12 760.12,-12 760.12,-6 766.12,0 772.12,0 772.12,0 839.17,0 839.17,0 845.17,0 851.17,-6 851.17,-12 851.17,-12 851.17,-29.55 851.17,-29.55 851.17,-35.55 845.17,-41.55 839.17,-41.55"/>
<text xml:space="preserve" text-anchor="middle" x="805.65" y="-15.75" font-family="Sinkin Sans 400 Regular" font-size="12.00">R1&#45;PDU&#45;B</text>
</g>
<!-- R1&#45;PDU&#45;B&#45;&#45;Beckhoff___com_PC -->
<g id="edge8" class="edge">
<title>R1&#45;PDU&#45;B&#45;&#45;Beckhoff___com_PC</title>
<path fill="none" stroke="#151617" stroke-width="4" d="M838.95,-41.97C861.57,-55.08 892.72,-70.67 922.65,-77.55 1123.63,-123.74 1183.92,-115.34 1386.65,-77.55 1423.23,-70.73 1462.43,-55.13 1491.14,-42.01"/>
</g>
<!-- R1&#45;PDU&#45;B&#45;&#45;Dedi_server -->
<g id="edge7" class="edge">
<title>R1&#45;PDU&#45;B&#45;&#45;Dedi_server</title>
<path fill="none" stroke="#151617" stroke-width="4" d="M838.95,-41.97C861.57,-55.08 892.72,-70.67 922.65,-77.55 1047.4,-106.22 1085.59,-104.82 1210.65,-77.55 1242.11,-70.69 1275.14,-55.1 1299.19,-41.98"/>
</g>
<!-- R1&#45;PDU&#45;B&#45;&#45;Operator_PC -->
<g id="edge6" class="edge">
<title>R1&#45;PDU&#45;B&#45;&#45;Operator_PC</title>
<path fill="none" stroke="#151617" stroke-width="4" d="M838.95,-41.97C861.57,-55.08 892.72,-70.67 922.65,-77.55 967.7,-87.9 981.43,-87.13 1026.65,-77.55 1058.99,-70.7 1093.1,-55.1 1117.96,-41.99"/>
</g>
<!-- R1&#45;PDU&#45;B&#45;&#45;Speedgoat -->
<g id="edge5" class="edge">
<title>R1&#45;PDU&#45;B&#45;&#45;Speedgoat</title>
<path fill="none" stroke="#151617" stroke-width="4" d="M851.53,-20.77C875.26,-20.77 898.98,-20.77 922.71,-20.77"/>
</g>
<!-- IG1 -->
<g id="node10" class="node">
<title>IG1</title>
<path fill="#ced3db" stroke="black" d="M2141.65,-41.55C2141.65,-41.55 2111.65,-41.55 2111.65,-41.55 2105.65,-41.55 2099.65,-35.55 2099.65,-29.55 2099.65,-29.55 2099.65,-12 2099.65,-12 2099.65,-6 2105.65,0 2111.65,0 2111.65,0 2141.65,0 2141.65,0 2147.65,0 2153.65,-6 2153.65,-12 2153.65,-12 2153.65,-29.55 2153.65,-29.55 2153.65,-35.55 2147.65,-41.55 2141.65,-41.55"/>
<text xml:space="preserve" text-anchor="middle" x="2126.65" y="-15.75" font-family="Sinkin Sans 400 Regular" font-size="12.00">IG1</text>
</g>
<!-- IG2 -->
<g id="node11" class="node">
<title>IG2</title>
<path fill="#ced3db" stroke="black" d="M2015.65,-41.55C2015.65,-41.55 1985.65,-41.55 1985.65,-41.55 1979.65,-41.55 1973.65,-35.55 1973.65,-29.55 1973.65,-29.55 1973.65,-12 1973.65,-12 1973.65,-6 1979.65,0 1985.65,0 1985.65,0 2015.65,0 2015.65,0 2021.65,0 2027.65,-6 2027.65,-12 2027.65,-12 2027.65,-29.55 2027.65,-29.55 2027.65,-35.55 2021.65,-41.55 2015.65,-41.55"/>
<text xml:space="preserve" text-anchor="middle" x="2000.65" y="-15.75" font-family="Sinkin Sans 400 Regular" font-size="12.00">IG2</text>
</g>
<!-- IG3 -->
<g id="node12" class="node">
<title>IG3</title>
<path fill="#ced3db" stroke="black" d="M1889.65,-41.55C1889.65,-41.55 1859.65,-41.55 1859.65,-41.55 1853.65,-41.55 1847.65,-35.55 1847.65,-29.55 1847.65,-29.55 1847.65,-12 1847.65,-12 1847.65,-6 1853.65,0 1859.65,0 1859.65,0 1889.65,0 1889.65,0 1895.65,0 1901.65,-6 1901.65,-12 1901.65,-12 1901.65,-29.55 1901.65,-29.55 1901.65,-35.55 1895.65,-41.55 1889.65,-41.55"/>
<text xml:space="preserve" text-anchor="middle" x="1874.65" y="-15.75" font-family="Sinkin Sans 400 Regular" font-size="12.00">IG3</text>
</g>
<!-- R2&#45;PDU&#45;A -->
<g id="node13" class="node">
<title>R2&#45;PDU&#45;A</title>
<path fill="#aaaaaa" stroke="black" d="M1764.05,-41.55C1764.05,-41.55 1693.25,-41.55 1693.25,-41.55 1687.25,-41.55 1681.25,-35.55 1681.25,-29.55 1681.25,-29.55 1681.25,-12 1681.25,-12 1681.25,-6 1687.25,0 1693.25,0 1693.25,0 1764.05,0 1764.05,0 1770.05,0 1776.05,-6 1776.05,-12 1776.05,-12 1776.05,-29.55 1776.05,-29.55 1776.05,-35.55 1770.05,-41.55 1764.05,-41.55"/>
<text xml:space="preserve" text-anchor="middle" x="1728.65" y="-15.75" font-family="Sinkin Sans 400 Regular" font-size="12.00">R2&#45;PDU&#45;A</text>
</g>
<!-- R2&#45;PDU&#45;A&#45;&#45;IG1 -->
<g id="edge9" class="edge">
<title>R2&#45;PDU&#45;A&#45;&#45;IG1</title>
<path fill="none" stroke="#151617" stroke-width="4" d="M1762.56,-41.97C1785.6,-55.08 1817.29,-70.68 1847.65,-77.55 1925.68,-95.21 1950.35,-98.14 2027.65,-77.55 2053.88,-70.56 2080.39,-54.79 2099.37,-41.64"/>
</g>
<!-- R2&#45;PDU&#45;A&#45;&#45;IG2 -->
<g id="edge10" class="edge">
<title>R2&#45;PDU&#45;A&#45;&#45;IG2</title>
<path fill="none" stroke="#151617" stroke-width="4" d="M1758.96,-41.9C1793.26,-63.18 1850.94,-91.06 1901.65,-77.55 1927.88,-70.56 1954.39,-54.79 1973.37,-41.64"/>
</g>
<!-- R2&#45;PDU&#45;A&#45;&#45;IG3 -->
<g id="edge11" class="edge">
<title>R2&#45;PDU&#45;A&#45;&#45;IG3</title>
<path fill="none" stroke="#151617" stroke-width="4" d="M1776.27,-20.77C1799.97,-20.77 1823.67,-20.77 1847.37,-20.77"/>
</g>
</g>
</svg>
