<?xml version="1.0" encoding="UTF-8" standalone="no"?>
<!DOCTYPE svg PUBLIC "-//W3C//DTD SVG 1.1//EN"
 "http://www.w3.org/Graphics/SVG/1.1/DTD/svg11.dtd">
<!-- Generated by graphviz version 14.1.2 (20260124.0452)
 -->
<!-- Title: Visual Subnet Ethernet Pages: 1 -->
<svg width="856pt" height="191pt"
 viewBox="0.00 0.00 856.00 191.00" xmlns="http://www.w3.org/2000/svg" xmlns:xlink="http://www.w3.org/1999/xlink">
<g id="graph0" class="graph" transform="scale(1 1) rotate(0) translate(4 186.6)">
<title>Visual Subnet Ethernet</title>
<polygon fill="white" stroke="none" points="-4,4 -4,-186.6 852.17,-186.6 852.17,4 -4,4"/>
<text xml:space="preserve" text-anchor="middle" x="424.09" y="-164.35" font-family="Arial Bold" font-size="15.00">Visual Subnet Ethernet</text>
<!-- Audio___terrain -->
<g id="node1" class="node">
<title>Audio___terrain</title>
<path fill="#ced3db" stroke="black" d="M84.3,-42.3C84.3,-42.3 12,-42.3 12,-42.3 6,-42.3 0,-36.3 0,-30.3 0,-30.3 0,-12 0,-12 0,-6 6,0 12,0 12,0 84.3,0 84.3,0 90.3,0 96.3,-6 96.3,-12 96.3,-12 96.3,-30.3 96.3,-30.3 96.3,-36.3 90.3,-42.3 84.3,-42.3"/>
<text xml:space="preserve" text-anchor="middle" x="48.15" y="-17.45" font-family="Arial" font-size="11.00">Audio / terrain</text>
</g>
<!-- Dedi_server -->
<g id="node2" class="node">
<title>Dedi_server</title>
<path fill="#ced3db" stroke="black" d="M204.3,-42.3C204.3,-42.3 144,-42.3 144,-42.3 138,-42.3 132,-36.3 132,-30.3 132,-30.3 132,-12 132,-12 132,-6 138,0 144,0 144,0 204.3,0 204.3,0 210.3,0 216.3,-6 216.3,-12 216.3,-12 216.3,-30.3 216.3,-30.3 216.3,-36.3 210.3,-42.3 204.3,-42.3"/>
<text xml:space="preserve" text-anchor="middle" x="174.15" y="-17.45" font-family="Arial" font-size="11.00">Dedi server</text>
</g>
<!-- Fibre_converter -->
<g id="node3" class="node">
<title>Fibre_converter</title>
<path fill="#e8f4f8" stroke="black" d="M341.92,-42.3C341.92,-42.3 264.38,-42.3 264.38,-42.3 258.38,-42.3 252.37,-36.3 252.37,-30.3 252.37,-30.3 252.37,-12 252.37,-12 252.37,-6 258.38,0 264.38,0 264.38,0 341.92,0 341.92,0 347.92,0 353.92,-6 353.92,-12 353.92,-12 353.92,-30.3 353.92,-30.3 353.92,-36.3 347.92,-42.3 341.92,-42.3"/>
<text xml:space="preserve" text-anchor="middle" x="303.15" y="-17.45" font-family="Arial" font-size="11.00">Fibre converter</text>
</g>
<!-- Operator_PC -->
<g id="node4" class="node">
<title>Operator_PC</title>
<path fill="#ced3db" stroke="black" d="M468.3,-42.3C468.3,-42.3 402,-42.3 402,-42.3 396,-42.3 390,-36.3 390,-30.3 390,-30.3 390,-12 390,-12 390,-6 396,0 402,0 402,0 468.3,0 468.3,0 474.3,0 480.3,-6 480.3,-12 480.3,-12 480.3,-30.3 480.3,-30.3 480.3,-36.3 474.3,-42.3 468.3,-42.3"/>
<text xml:space="preserve" text-anchor="middle" x="435.15" y="-17.45" font-family="Arial" font-size="11.00">Operator PC</text>
</g>
<!-- Physics_PC -->
<g id="node5" class="node">
<title>Physics_PC</title>
<path fill="#ced3db" stroke="black" d="M588.3,-42.3C588.3,-42.3 528,-42.3 528,-42.3 522,-42.3 516,-36.3 516,-30.3 516,-30.3 516,-12 516,-12 516,-6 522,0 528,0 528,0 588.3,0 588.3,0 594.3,0 600.3,-6 600.3,-12 600.3,-12 600.3,-30.3 600.3,-30.3 600.3,-36.3 594.3,-42.3 588.3,-42.3"/>
<text xml:space="preserve" text-anchor="middle" x="558.15" y="-17.45" font-family="Arial" font-size="11.00">Physics PC</text>
</g>
<!-- Speedgoat -->
<g id="node6" class="node">
<title>Speedgoat</title>
<path fill="#519ab5" stroke="black" d="M705.8,-42.3C705.8,-42.3 648.5,-42.3 648.5,-42.3 642.5,-42.3 636.5,-36.3 636.5,-30.3 636.5,-30.3 636.5,-12 636.5,-12 636.5,-6 642.5,0 648.5,0 648.5,0 705.8,0 705.8,0 711.8,0 717.8,-6 717.8,-12 717.8,-12 717.8,-30.3 717.8,-30.3 717.8,-36.3 711.8,-42.3 705.8,-42.3"/>
<text xml:space="preserve" text-anchor="middle" x="677.15" y="-17.45" font-family="Arial" font-size="11.00">Speedgoat</text>
</g>
<!-- Telemetry_PC -->
<g id="node7" class="node">
<title>Telemetry_PC</title>
<path fill="#ced3db" stroke="black" d="M836.17,-42.3C836.17,-42.3 766.12,-42.3 766.12,-42.3 760.12,-42.3 754.12,-36.3 754.12,-30.3 754.12,-30.3 754.12,-12 754.12,-12 754.12,-6 760.12,0 766.12,0 766.12,0 836.17,0 836.17,0 842.17,0 848.17,-6 848.17,-12 848.17,-12 848.17,-30.3 848.17,-30.3 848.17,-36.3 842.17,-42.3 836.17,-42.3"/>
<text xml:space="preserve" text-anchor="middle" x="801.15" y="-17.45" font-family="Arial" font-size="11.00">Telemetry PC</text>
</g>
<!-- Vis_switch -->
<g id="node8" class="node">
<title>Vis_switch</title>
<path fill="#e8f4f8" stroke="black" d="M461.55,-156.6C461.55,-156.6 408.75,-156.6 408.75,-156.6 402.75,-156.6 396.75,-150.6 396.75,-144.6 396.75,-144.6 396.75,-126.3 396.75,-126.3 396.75,-120.3 402.75,-114.3 408.75,-114.3 408.75,-114.3 461.55,-114.3 461.55,-114.3 467.55,-114.3 473.55,-120.3 473.55,-126.3 473.55,-126.3 473.55,-144.6 473.55,-144.6 473.55,-150.6 467.55,-156.6 461.55,-156.6"/>
<text xml:space="preserve" text-anchor="middle" x="435.15" y="-131.75" font-family="Arial" font-size="11.00">Vis switch</text>
</g>
<!-- Vis_switch&#45;&#45;Audio___terrain -->
<g id="edge1" class="edge">
<title>Vis_switch&#45;&#45;Audio___terrain</title>
<path fill="none" stroke="#2e86ab" stroke-width="2.5" d="M396.55,-123.59C336.2,-106.57 215.89,-72.43 114.15,-42.3 108.52,-40.63 102.63,-38.87 96.78,-37.1"/>
</g>
<!-- Vis_switch&#45;&#45;Dedi_server -->
<g id="edge7" class="edge">
<title>Vis_switch&#45;&#45;Dedi_server</title>
<path fill="none" stroke="#2e86ab" stroke-width="2.5" d="M396.36,-117.76C348.22,-97.05 266.41,-61.85 216.63,-40.43"/>
</g>
<!-- Vis_switch&#45;&#45;Fibre_converter -->
<g id="edge3" class="edge">
<title>Vis_switch&#45;&#45;Fibre_converter</title>
<path fill="none" stroke="#2e86ab" stroke-width="2.5" d="M410.94,-113.85C387.12,-93.59 350.97,-62.83 327.21,-42.62"/>
</g>
<!-- Vis_switch&#45;&#45;Operator_PC -->
<g id="edge6" class="edge">
<title>Vis_switch&#45;&#45;Operator_PC</title>
<path fill="none" stroke="#2e86ab" stroke-width="2.5" d="M435.15,-113.85C435.15,-93.59 435.15,-62.83 435.15,-42.62"/>
</g>
<!-- Vis_switch&#45;&#45;Physics_PC -->
<g id="edge4" class="edge">
<title>Vis_switch&#45;&#45;Physics_PC</title>
<path fill="none" stroke="#2e86ab" stroke-width="2.5" d="M457.71,-113.85C479.9,-93.59 513.59,-62.83 535.73,-42.62"/>
</g>
<!-- Vis_switch&#45;&#45;Speedgoat -->
<g id="edge5" class="edge">
<title>Vis_switch&#45;&#45;Speedgoat</title>
<path fill="none" stroke="#2e86ab" stroke-width="2.5" d="M474.03,-116.41C518.52,-95.76 591.06,-62.1 636.34,-41.09"/>
</g>
<!-- Vis_switch&#45;&#45;Telemetry_PC -->
<g id="edge2" class="edge">
<title>Vis_switch&#45;&#45;Telemetry_PC</title>
<path fill="none" stroke="#2e86ab" stroke-width="2.5" d="M473.65,-122.71C530.91,-105.24 641.88,-71.34 736.15,-42.3 741.91,-40.53 747.95,-38.66 753.94,-36.81"/>
</g>
</g>
</svg>
